<?xml version="1.0" encoding="utf-8"?>
<!-- Generator: Adobe Illustrator 24.3.0, SVG Export Plug-In . SVG Version: 6.00 Build 0)  -->
<svg version="1.1" id="Layer_1" xmlns="http://www.w3.org/2000/svg" xmlns:xlink="http://www.w3.org/1999/xlink" x="0px" y="0px"
	 viewBox="0 0 180 180" style="enable-background:new 0 0 180 180;" xml:space="preserve">
<style type="text/css">
	.qiskit0{fill:#FFFFFF;}
	.qiskit1{fill:url(#QISKIT_SVG_ID_1_);}
	.qiskit2{fill:#010101;}
	.qiskit3{fill:url(#QISKIT_SVG_ID_2_);}
	.qiskit4{fill:url(#QISKIT_SVG_ID_3_);}
	.qiskit5{fill:url(#QISKIT_SVG_ID_4_);}
	.qiskit6{fill:url(#QISKIT_SVG_ID_5_);}
</style>
<circle class="qiskit0" cx="89.9" cy="90" r="75.4"/>
<radialGradient id="QISKIT_SVG_ID_1_" cx="143.8391" cy="78.1271" r="64.97" gradientTransform="matrix(0.96 0.21 0.14 -0.63 -35.6253 110.6623)" gradientUnits="userSpaceOnUse">
	<stop  offset="0.16" style="stop-color:#010101;stop-opacity:0"/>
	<stop  offset="1" style="stop-color:#010101"/>
</radialGradient>
<path class="qiskit1" d="M150.5,122.8L150.5,122.8L150.5,122.8c-0.1-12.9-30.5-20.2-59.1-20.5c-30.3,0-61.8,7.7-61.8,20.5l0,0l0,0l0,0
	l0,0c0.1,12.9,30.5,20.2,59.1,20.5C119,143.3,150.4,135.7,150.5,122.8L150.5,122.8z M88.6,138.6c-32-0.4-54.3-8.6-54.4-15.8
	c0.1-7.5,24.5-15.8,57.1-15.8c32,0.4,54.3,8.6,54.4,15.8C145.7,130.3,121.3,138.6,88.6,138.6z"/>
<path class="qiskit2" d="M90.1,160c-38.7,0.1-70.1-31.1-70.2-69.8C19.8,51.6,51,20.1,89.7,20c25.9-0.1,49.7,14.2,62,37l0,0
	c18.3,34,5.4,76.4-28.6,94.7C112.9,157.1,101.6,160,90.1,160z M89.9,24.8c-36,0.1-65.2,29.3-65.1,65.3c0.1,36,29.3,65.2,65.3,65.1
	s65.2-29.3,65.1-65.3c0-10.7-2.7-21.3-7.7-30.7l0,0C136.1,38,114,24.8,89.9,24.8z"/>
<radialGradient id="QISKIT_SVG_ID_2_" cx="77.2376" cy="-156.3817" r="35.02" gradientTransform="matrix(0.98 0 0 -0.6 14.6377 39.608)" gradientUnits="userSpaceOnUse">
	<stop  offset="0" style="stop-color:#010101;stop-opacity:0"/>
	<stop  offset="1" style="stop-color:#010101"/>
</radialGradient>
<path class="qiskit3" d="M108,150.6L108,150.6L108,150.6c-0.1-5.3-7.8-9.4-18-9.4s-18,4-18,9.4l0,0v0.1l0,0c0.1,5.4,7.8,9.4,18,9.4
	S108,156,108,150.6L108,150.6L108,150.6z M90,155.6c-8.1,0-13.2-2.9-13.3-5c-0.1-2.1,5.2-5,13.3-5s13.2,2.9,13.3,5
	S98.1,155.5,90,155.6L90,155.6z"/>
<radialGradient id="QISKIT_SVG_ID_3_" cx="77.6876" cy="54.1917" r="60.28" gradientTransform="matrix(0.98 0 0 -0.75 14.5277 92.2287)" gradientUnits="userSpaceOnUse">
	<stop  offset="0.2" style="stop-color:#010101;stop-opacity:0"/>
	<stop  offset="1" style="stop-color:#010101"/>
</radialGradient>
<path class="qiskit4" d="M160,90.1L160,90.1L160,90.1c-0.2-13.8-35.3-21.8-68.4-22.1c-35,0-71.4,8.3-71.6,22l0,0c0,0,0,0,0,0.1
	c0,0,0,0,0,0.1l0,0c0.2,13.9,35.3,21.8,68.4,22.1C123.4,112.2,159.8,103.9,160,90.1L160,90.1L160,90.1z M88.4,107.5
	C51,107.1,24.9,98,24.8,90.1c0.1-8.2,28.7-17.4,66.8-17.4c37.4,0.4,63.5,9.5,63.6,17.4C155.1,98.3,126.6,107.5,88.4,107.5z"/>
<radialGradient id="QISKIT_SVG_ID_4_" cx="65.3691" cy="542.489" r="40.68" gradientTransform="matrix(0.4 0.89 1.26 -0.57 -655.6453 272.8202)" gradientUnits="userSpaceOnUse">
	<stop  offset="0.36" style="stop-color:#010101;stop-opacity:0"/>
	<stop  offset="1" style="stop-color:#010101"/>
</radialGradient>
<path class="qiskit5" d="M91.4,36.5c-30.4,0-61.8,7.7-61.8,20.6s30.4,20.3,59,20.6c30.3,0,61.8-7.7,61.8-20.6S120,36.9,91.4,36.5z
	 M88.7,73c-32-0.4-54.3-8.7-54.3-15.9c0-7.5,24.4-15.9,57-15.9c32,0.4,54.3,8.6,54.3,15.9C145.7,64.6,121.3,73,88.7,73z"/>
<path d="M89.8,20c-5.1,0-16.9,0.8-16.9,7.9s11.8,7.9,16.9,7.9s16.9-0.8,16.9-7.9S94.9,20,89.8,20z M89.8,24.8
	c7.1,0,12.1,1.7,12.1,3.1s-5,3.1-12.1,3.1s-12.1-1.6-12.1-3.1S82.6,24.8,89.8,24.8L89.8,24.8z"/>
<radialGradient id="QISKIT_SVG_ID_5_" cx="-375.1424" cy="1360.9691" r="1068.9399" gradientTransform="matrix(0.98 0 0 -0.98 14.6377 176.6299)" gradientUnits="userSpaceOnUse">
	<stop  offset="0" style="stop-color:#010101;stop-opacity:0"/>
	<stop  offset="0.37" style="stop-color:#010101"/>
</radialGradient>
<path class="qiskit6" d="M119.3,132.5c-0.3,0-0.6,0-0.9,0.1l0,0L92.2,87.1l0,0l-24-41.4c2-2.6,1.6-6.4-1-8.4s-6.4-1.6-8.4,1
	c-2,2.6-1.6,6.4,1,8.4c1.1,0.9,2.5,1.3,3.9,1.3c0.3,0,0.5,0,0.8-0.1l24,41.3l0,0L99.2,108l0,0l15.4,26.7c-2.1,2.6-1.7,6.3,0.8,8.4
	c2.6,2.1,6.3,1.7,8.4-0.8s1.7-6.3-0.8-8.4C122.1,133,120.7,132.5,119.3,132.5L119.3,132.5z"/>
</svg>
